<svg height="104" viewBox="0 0 328 104" width="328" xmlns="http://www.w3.org/2000/svg"><g fill="none" fill-rule="evenodd" transform="translate(1 2)"><g fill="#fffffe"><path d="m89 98h18v-97h-18z"/><path d="m145.465517 68.5135462c0 9.4748609 4.10229 15.0131948 16.998842 15.0131948 4.983917 0 10.114965-.4367517 15.095407-1.1650553v-29.4467428h17.440234v42.7117785c-10.257462 2.9155191-22.420676 4.3732786-32.681614 4.3732786-23.886193 0-35.318386-10.059117-35.318386-29.3003907v-41.4015234c0-19.96957719 11.725296-29.2980859 37.078165-29.2980859 7.911477 0 19.197697.87350335 27.990801 3.20591862l-2.052883 16.03535498c-8.940235-1.8945112-17.876993-2.6251195-27.405752-2.6251195-12.895393 0-17.144814 5.2490867-17.144814 15.1618516z"/><path d="m216 98h18v-97h-18z"/></g><path d="m258 69v-68h68z" fill="#7cbb60"/><path d="m35.9588053 1h-35.9588053v16.2332546l34.0722087-.0679312c12.3247708 0 15.6589806 4.9520695 15.6589806 14.2736121v36.1198262c0 9.3215426-3.3342098 14.2747635-15.6589806 14.2747635h-15.803398v-55.511306l-18.2688107 18.351787v53.3259938h35.9588053c23.778452 0 32.0411947-12.2345247 32.0411947-26.0717652v-44.8587724c0-13.9823139-8.2627427-26.0694624-32.0411947-26.0694624" fill="#fffffe"/><path d="m246.853367 92.9234694c.716356 0 1.140605-.3039042 1.140605-.8629104 0-.5068767-.290947-.836291-1.087284-.836291h-.741857v1.6992014zm-1.776979-2.5621118h2.015765c1.115103 0 2.069085.4314552 2.069085 1.6492901 0 .6089175-.397589 1.1923248-.980642 1.3952973l1.219427 2.1062555h-1.219427l-.928481-1.775732h-1.087284v1.775732h-1.088443zm5.861829 2.6386424c0-2.3857587-1.723658-4.0860692-3.951547-4.0860692s-3.926046 1.7003105-3.926046 4.0860692c0 2.4112689 1.698157 4.060559 3.926046 4.060559s3.951547-1.6492901 3.951547-4.060559zm-8.938217 0c0-2.9691659 2.25455-5 4.98667-5 2.757621 0 5.01333 2.0308341 5.01333 5s-2.255709 5-5.01333 5c-2.73212 0-4.98667-2.0308341-4.98667-5z" fill="#fffffe"/></g></svg>