<?xml version="1.0" encoding="UTF-8"?>
<svg width="32px" height="32px" viewBox="0 0 32 32" version="1.1" xmlns="http://www.w3.org/2000/svg" xmlns:xlink="http://www.w3.org/1999/xlink">
    <title>support-drivers</title>
    <g id="Converted-from-XD" stroke="none" stroke-width="1" fill="none" fill-rule="evenodd">
        <g id="Support-Landing" transform="translate(-56.000000, -834.000000)" fill="#84C361" fill-rule="nonzero">
            <g id="d" transform="translate(-66.000000, 0.000000)">
                <g id="Group" transform="translate(122.000000, 834.000000)">
                    <path d="M30.1621239,17.888401 L28.7171239,16.460401 L28.5331239,15.054401 L30.2571239,13.019401 C30.9024856,12.2550577 30.9711375,11.158253 30.4261239,10.319401 L27.6131239,5.95840101 C27.0455555,5.08602854 25.9583659,4.71004213 24.9731239,5.04540101 L22.2951239,5.95640101 L20.7951239,5.21740101 L19.8821239,2.53540101 C19.5368261,1.55585036 18.5778841,0.929259624 17.5421239,1.00640101 L12.3771239,1.43640101 C11.3779086,1.51487412 10.5496127,2.24182084 10.3421239,3.22240101 L9.78112385,5.82240101 L8.55512385,6.53340101 L6.54412385,6.26040101 C5.5749871,6.12630438 4.62890186,6.62795519 4.19612385,7.50540101 L4.19612385,7.50540101 L2.23212385,11.494401 C1.80223801,12.3719779 1.9805291,13.4260284 2.67512385,14.113401 L4.12012385,15.539401 L4.30412385,16.945401 L2.58112385,18.980401 C1.93416555,19.7440009 1.86505215,20.8416844 2.41112385,21.680401 L5.21912385,26.031401 C5.44062208,26.3773435 5.75161572,26.6568922 6.11912385,26.840401 C6.66067017,27.1105775 7.28819652,27.1513072 7.86012385,26.953401 L10.5381239,26.042401 L12.0381239,26.781401 L12.9491239,29.457401 C13.2605966,30.3796853 14.1256642,31.000401 15.0991239,31.000401 C15.1641239,31.000401 15.2271239,31.000401 15.2911239,30.992401 L20.4541239,30.562401 C21.4553928,30.4865926 22.2870988,29.7603256 22.4971239,28.778401 L23.0601239,26.178401 L24.2861239,25.467401 L26.2951239,25.741401 C27.2659448,25.8775255 28.2142132,25.3739345 28.6451239,24.493401 L30.6071239,20.509401 C31.0384427,19.631029 30.8591804,18.5751946 30.1621239,17.888401 L30.1621239,17.888401 Z M26.3151239,22.952401 L24.1871239,22.660401 C23.8822072,22.6203887 23.5725991,22.6818886 23.3061239,22.835401 L21.1371239,24.091401 C20.7999212,24.2873985 20.5607415,24.6162253 20.4781239,24.997401 L19.8651239,27.837401 L15.4521239,28.203401 L14.4801239,25.349401 C14.3626844,25.0001286 14.110716,24.7121648 13.7801239,24.549401 L11.2501239,23.304401 C11.0605075,23.2105323 10.8517023,23.1619252 10.6401239,23.162401 C10.4883468,23.1617262 10.3375503,23.1867463 10.1941239,23.236401 L7.33812385,24.207401 L4.93812385,20.484401 L6.81512385,18.267401 C7.06593497,17.9697264 7.18022511,17.5804143 7.13012385,17.194401 L6.80412385,14.709401 C6.7637034,14.4041487 6.62299861,14.1209803 6.40412385,13.904401 L4.87512385,12.396401 L6.52012385,9.05240101 L8.65212385,9.34240101 C8.95709588,9.38417856 9.26727204,9.32256582 9.53312385,9.16740101 L11.7001239,7.90940101 C12.0365677,7.71540865 12.2757782,7.38871752 12.3591239,7.00940101 L12.9701239,4.16940101 L17.3841239,3.80240101 L18.3551239,6.65640101 C18.4735355,7.00511371 18.7252155,7.29274797 19.0551239,7.45640101 L21.5831239,8.70140101 C21.9125025,8.86332607 22.292712,8.88778609 22.6401239,8.76940101 L25.4941239,7.79840101 L27.8941239,11.520401 L26.0151239,13.736401 C25.7642119,14.0348091 25.6499453,14.4247664 25.7001239,14.811401 L26.0261239,17.295401 C26.0666177,17.6006308 26.2073113,17.8837767 26.4261239,18.100401 L27.9551239,19.610401 L26.3151239,22.952401 Z" id="Shape"></path>
                    <path d="M18.9151239,10.933401 C16.1159125,9.55580394 12.7299396,10.7082301 11.3523127,13.5074268 C9.97468578,16.3066235 11.1270758,19.6926086 13.9262578,21.0702654 C16.7254398,22.4479222 20.1114372,21.2955683 21.4891239,18.496401 C22.164348,17.154389 22.272044,15.5973525 21.7880127,14.1751578 C21.3039813,12.7529632 20.2688179,11.5848887 18.9151239,10.933401 L18.9151239,10.933401 Z M19.4241239,17.479401 C18.6076948,19.1362744 16.6028314,19.8177887 14.9457765,19.001728 C13.2887216,18.1856673 12.6067616,16.1809555 13.4224538,14.5237192 C14.2381461,12.8664829 16.2427062,12.1840772 17.9001239,12.999401 C19.5588787,13.8153636 20.2427953,15.8210117 19.4281239,17.480401 L19.4241239,17.479401 Z" id="Shape"></path>
                </g>
            </g>
        </g>
    </g>
</svg>