<?xml version="1.0" encoding="UTF-8"?>
<svg width="32px" height="32px" viewBox="0 0 32 32" version="1.1" xmlns="http://www.w3.org/2000/svg" xmlns:xlink="http://www.w3.org/1999/xlink">
    <title>support-check</title>
    <g id="Converted-from-XD" stroke="none" stroke-width="1" fill="none" fill-rule="evenodd">
        <g id="Support-Landing" transform="translate(-690.000000, -836.000000)" fill="#84C361" fill-rule="nonzero">
            <g id="d" transform="translate(-66.000000, 0.000000)">
                <g id="Group" transform="translate(756.000000, 836.000000)">
                    <path d="M19.915,10.632 L13.865,18.255 L12.024,16.231 C11.6942439,15.8692685 11.1965552,15.7109376 10.7184084,15.815649 C10.2402617,15.9203605 9.85429883,16.2722062 9.70590832,16.7386492 C9.55751781,17.2050921 9.66924373,17.7152686 9.999,18.077 L12.925,21.293 C13.1843315,21.5785731 13.5522478,21.7412843 13.938,21.7410004 L13.983,21.7410004 C14.3847735,21.728145 14.7606289,21.5394861 15.011,21.225 L22.064,12.34 C22.5250283,11.7460419 22.4221148,10.8916684 21.8332298,10.4241775 C21.2443447,9.95668657 20.3888977,10.0502583 19.915,10.634 L19.915,10.632 Z" id="Path"></path>
                    <path d="M16,1 C7.71572875,1 1,7.71572875 1,16 C1,24.2842712 7.71572875,31 16,31 C24.2842712,31 31,24.2842712 31,16 C30.9911814,7.71938427 24.2806157,1.00881855 16,1 L16,1 Z M16,28.257 C9.23009354,28.257 3.742,22.7689065 3.742,15.999 C3.742,9.22909354 9.23009354,3.741 16,3.741 C22.7699065,3.741 28.258,9.22909354 28.258,15.999 C28.2530395,22.7674984 22.7684964,28.2538312 16,28.261 L16,28.257 Z" id="Shape"></path>
                </g>
            </g>
        </g>
    </g>
</svg>