<?xml version="1.0" encoding="UTF-8"?>
<svg width="31px" height="31px" viewBox="0 0 31 31" version="1.1" xmlns="http://www.w3.org/2000/svg" xmlns:xlink="http://www.w3.org/1999/xlink">
    <title>support-firmware</title>
    <g id="Converted-from-XD" stroke="none" stroke-width="1" fill="none" fill-rule="evenodd">
        <g id="Support-Landing" transform="translate(-54.000000, -877.000000)" fill="#84C361" fill-rule="nonzero">
            <g id="d" transform="translate(-66.000000, 0.000000)">
                <path d="M149.187,893.850259 C149.912702,893.850259 150.501,893.261962 150.501,892.536259 C150.501,891.810557 149.912702,891.222259 149.187,891.222259 L145.9,891.222259 L145.9,887.238259 L149.187,887.238259 C149.912702,887.238259 150.501,886.649962 150.501,885.924259 C150.501,885.198557 149.912702,884.610259 149.187,884.610259 L145.9,884.610259 L145.9,883.453259 C145.899735,883.104765 145.761042,882.770649 145.514431,882.524414 C145.267821,882.278179 144.933494,882.139994 144.585,882.140259 L143.426,882.140259 L143.426,878.851259 C143.426,878.125557 142.837702,877.537259 142.112,877.537259 C141.386298,877.537259 140.798,878.125557 140.798,878.851259 L140.798,882.140259 L136.815,882.140259 L136.815,878.851259 C136.815,878.125557 136.226702,877.537259 135.501,877.537259 C134.775298,877.537259 134.187,878.125557 134.187,878.851259 L134.187,882.140259 L130.204,882.140259 L130.204,878.851259 C130.217193,878.372989 129.969576,877.925293 129.557441,877.682269 C129.145305,877.439244 128.633695,877.439244 128.221559,877.682269 C127.809424,877.925293 127.561807,878.372989 127.575,878.851259 L127.575,882.140259 L126.418,882.140259 C126.069506,882.139994 125.735179,882.278179 125.488569,882.524414 C125.241958,882.770649 125.103265,883.104765 125.103,883.453259 L125.103,884.611259 L121.814,884.611259 C121.088298,884.611259 120.5,885.199557 120.5,885.925259 C120.5,886.650962 121.088298,887.239259 121.814,887.239259 L125.103,887.239259 L125.103,891.223259 L121.814,891.223259 C121.088298,891.223259 120.5,891.811557 120.5,892.537259 C120.5,893.262962 121.088298,893.851259 121.814,893.851259 L125.103,893.851259 L125.103,897.835259 L121.814,897.835259 C121.088298,897.835259 120.5,898.423557 120.5,899.149259 C120.5,899.874962 121.088298,900.463259 121.814,900.463259 L125.103,900.463259 L125.103,901.623259 C125.103265,901.971754 125.241958,902.30587 125.488569,902.552105 C125.735179,902.79834 126.069506,902.936525 126.418,902.936259 L127.575,902.936259 L127.575,906.223259 C127.594636,906.935121 128.177367,907.502 128.8895,907.502 C129.601633,907.502 130.184364,906.935121 130.204,906.223259 L130.204,902.933259 L134.187,902.933259 L134.187,906.223259 C134.187,906.948962 134.775298,907.537259 135.501,907.537259 C136.226702,907.537259 136.815,906.948962 136.815,906.223259 L136.815,902.933259 L140.798,902.933259 L140.798,906.223259 C140.798,906.948962 141.386298,907.537259 142.112,907.537259 C142.837702,907.537259 143.426,906.948962 143.426,906.223259 L143.426,902.933259 L144.585,902.933259 C144.933494,902.933525 145.267821,902.79534 145.514431,902.549105 C145.761042,902.30287 145.899735,901.968754 145.9,901.620259 L145.9,900.462259 L149.187,900.462259 C149.656447,900.46226 150.090234,900.211813 150.324958,899.80526 C150.559681,899.398707 150.559681,898.897812 150.324958,898.491259 C150.090234,898.084706 149.656447,897.834259 149.187,897.834259 L145.9,897.834259 L145.9,893.850259 L149.187,893.850259 Z M143.27,900.305259 L127.737,900.305259 L127.737,884.766259 L143.275,884.766259 L143.27,900.305259 Z" id="Shape"></path>
            </g>
        </g>
    </g>
</svg>